<svg width="91" height="90" viewBox="0 0 91 90" fill="none" xmlns="http://www.w3.org/2000/svg">
<rect x="0.5" width="90" height="90" rx="45" fill="#0D6672"/>
<path d="M65.5 20H25.5C22.75 20 20.5 22.25 20.5 25V70L30.5 60H65.5C68.25 60 70.5 57.75 70.5 55V25C70.5 22.25 68.25 20 65.5 20ZM48 50H43V45H48V50ZM52.5 37.5C51.75 38.5 50.75 39 49.75 39.5C49 40 48.75 40.25 48.5 40.75C48 41.25 48 41.75 48 42.5H43C43 41.25 43.25 40.5 43.75 39.75C44.25 39.25 45.25 38.5 46.5 37.75C47.25 37.5 47.75 37 48 36.5C48.25 36 48.5 35.25 48.5 34.75C48.5 34 48.25 33.5 47.75 33C47.25 32.5 46.5 32.25 45.75 32.25C45 32.25 44.5 32.5 44 32.75C43.5 33 43.25 33.5 43.25 34.25H38.25C38.5 32.5 39.25 31 40.5 30C41.75 29 43.5 28.75 45.75 28.75C48 28.75 50 29.25 51.25 30.25C52.5 31.25 53.25 32.75 53.25 34.5C53.5 35.5 53.25 36.5 52.5 37.5Z" fill="white"/>
</svg>
